<svg viewBox="0 0 1000 1000" xmlns="http://www.w3.org/2000/svg"><defs><radialGradient gradientUnits="userSpaceOnUse" cx="500" cy="500" r="700" id="bkStyle"><stop offset="0" style="stop-color: #eeeeee"></stop><stop offset="1" style="stop-color: rgb(185, 125, 85)"></stop></radialGradient></defs><rect id="background" width="1000" height="1000" style="fill: url(#bkStyle);" onclick="background.style.fill='rgba(0,0,0,0)'"></rect><rect x="370" y="760" width="260" height="250" style="fill: rgb(70, 130, 170); stroke-width: 10px; stroke: rgb(32, 32, 32);"></rect><rect x="215" y="240" width="570" height="520" style="fill: rgb(90, 150, 190); stroke-width: 19px; stroke: rgb(42, 42, 42);"></rect><rect x="342" y="392" width="140" height="126" style="fill: rgb(164, 215, 210); stroke-width: 6px; stroke: rgb(55, 55, 55);"></rect><rect x="538" y="387" width="115" height="131" style="fill: rgb(164, 215, 210); stroke-width: 6px; stroke: rgb(55, 55, 55);"></rect><rect x="396" y="392" width="52" height="61" style="fill: rgb(32,32,32); stroke-width: 6px; stroke: rgb(55,55,55);"></rect><rect x="574" y="387" width="43" height="49" style="fill: rgb(32,32,32); stroke-width: 6px; stroke: rgb(55,55,55);"></rect><rect x="486" y="502" width="28" height="69" style="fill: rgb(205, 175, 206); stroke-width: 6px; stroke: rgb(55, 55, 55);"></rect><rect x="168" y="445" width="47" height="166" style="fill: rgb(201, 198, 238); stroke-width: 6px; stroke: rgb(42, 42, 42);"></rect><rect x="785" y="445" width="47" height="166" style="fill: rgb(201, 198, 238); stroke-width: 6px; stroke: rgb(42, 42, 42);"></rect><rect x="343" y="358" width="150" height="20" style="fill: rgb(55, 55, 55); stroke-width: 0px; stroke: rgb(0, 0, 0);"></rect><rect x="504" y="338" width="165" height="15" style="fill: rgb(55, 55, 55); stroke-width: 0px; stroke: rgb(0, 0, 0);"></rect><rect x="357" y="597" width="285" height="63" style="fill: rgb(170, 239, 252); stroke-width: 6px; stroke: rgb(55, 55, 55);"></rect><rect x="374" y="600" width="250" height="57" style="fill: rgb(230, 230, 230); stroke-width: 0px; stroke: rgb(0, 0, 0);"></rect><rect x="215" y="189" width="570" height="51" style="fill: rgb(141, 174, 223); stroke-width: 0px; stroke: rgb(0, 0, 0);"></rect><rect x="357" y="138" width="285" height="102" style="fill: rgb(141, 174, 223); stroke-width: 0px; stroke: rgb(0, 0, 0);"></rect><rect x="215" y="238" width="47" height="362" style="fill: rgb(141, 174, 223); stroke-width: 0px; stroke: rgb(0, 0, 0);"></rect><rect x="355" y="950" width="290" height="62" style="fill: rgb(101, 134, 183); stroke-width: 6px; stroke: rgb(32, 32, 32);"></rect></svg>