<svg viewBox="0 0 1000 1000" xmlns="http://www.w3.org/2000/svg"><defs><linearGradient id="bkStyle"><stop offset="0" style="stop-color: rgb(255, 0, 0);"></stop><stop offset="0.17" style="stop-color: rgb(255, 170, 0);"></stop><stop offset="0.36" style="stop-color: rgb(255, 251, 0);"></stop><stop offset="0.52" style="stop-color: rgb(115, 255, 0);"></stop><stop offset="0.69" style="stop-color: rgb(0, 81, 255);"></stop><stop offset="0.85" style="stop-color: rgb(29, 1, 255);"></stop><stop offset="1" style="stop-color: rgb(102, 0, 255);"></stop></linearGradient></defs><rect id="background" width="1000" height="1000" style="fill: url(#bkStyle);"></rect><pattern id="textPattern1" x="0" y="0" width="240" height="25" patternUnits="userSpaceOnUse"><text font-family="Comic Sans MS, sans-serif" font-size="20" x="0" y="20" fill="white">FEELS GOOD MAN</text><animate attributeName="x" from="240" to="-240" dur="6s" repeatCount="indefinite"></animate></pattern><pattern id="textPattern2" x="0" y="0" width="240" height="25" patternUnits="userSpaceOnUse"><text font-family="Comic Sans MS, sans-serif" font-size="20" x="0" y="20" fill="white">FEELS GOOD MAN</text><animate attributeName="x" from="240" to="-240" dur="6s" repeatCount="indefinite"></animate></pattern><pattern id="textPattern3" x="0" y="0" width="240" height="25" patternUnits="userSpaceOnUse"><text font-family="Comic Sans MS, sans-serif" font-size="20" x="0" y="20" fill="white">FEELS GOOD MAN</text><animate attributeName="x" from="240" to="-240" dur="8s" repeatCount="indefinite"></animate></pattern><pattern id="textPattern4" x="0" y="0" width="240" height="25" patternUnits="userSpaceOnUse"><text font-family="Comic Sans MS, sans-serif" font-size="20" x="0" y="20" fill="white">FEELS GOOD MAN</text><animate attributeName="x" from="240" to="-240" dur="6s" repeatCount="indefinite"></animate></pattern><pattern id="textPattern5" x="0" y="0" width="240" height="25" patternUnits="userSpaceOnUse"><text font-family="Comic Sans MS, sans-serif" font-size="20" x="0" y="20" fill="white">FEELS GOOD MAN</text><animate attributeName="x" from="-240" to="240" dur="7s" repeatCount="indefinite"></animate></pattern><pattern id="textPattern6" x="0" y="0" width="240" height="25" patternUnits="userSpaceOnUse"><text font-family="Comic Sans MS, sans-serif" font-size="20" x="0" y="20" fill="white">FEELS GOOD MAN</text><animate attributeName="x" from="240" to="-240" dur="8s" repeatCount="indefinite"></animate></pattern><pattern id="textPattern7" x="0" y="0" width="240" height="25" patternUnits="userSpaceOnUse"><text font-family="Comic Sans MS, sans-serif" font-size="20" x="0" y="20" fill="white">FEELS GOOD MAN</text><animate attributeName="x" from="240" to="-240" dur="6s" repeatCount="indefinite"></animate></pattern><pattern id="gridPattern" x="-10" y="-10" width="240" height="175" patternUnits="userSpaceOnUse"><rect x="0" y="0" width="240" height="25" fill="url(#textPattern1)"></rect><rect x="0" y="25" width="240" height="25" fill="url(#textPattern2)"></rect><rect x="0" y="50" width="240" height="25" fill="url(#textPattern3)"></rect><rect x="0" y="75" width="240" height="25" fill="url(#textPattern4)"></rect><rect x="0" y="100" width="240" height="25" fill="url(#textPattern5)"></rect><rect x="0" y="125" width="240" height="25" fill="url(#textPattern6)"></rect><rect x="0" y="150" width="240" height="25" fill="url(#textPattern7)"></rect></pattern><rect x="0" y="0" width="1000" height="1000" fill="url(#gridPattern)"></rect><rect x="355" y="775" width="290" height="235" style="fill: rgb(67, 122, 37); stroke-width: 10px; stroke: rgb(32, 32, 32);"></rect><rect x="255" y="225" width="490" height="550" style="fill: rgb(87, 142, 57); stroke-width: 19px; stroke: rgb(42, 42, 42);"></rect><rect x="368" y="395" width="106" height="121" style="fill: rgb(226, 227, 226); stroke-width: 6px; stroke: rgb(55, 55, 55);"></rect><rect x="534" y="411" width="101" height="91" style="fill: rgb(226, 227, 226); stroke-width: 6px; stroke: rgb(55, 55, 55);"></rect><rect x="390" y="470" width="43" height="46" style="fill: rgb(32,32,32); stroke-width: 6px; stroke: rgb(55,55,55);"></rect><rect x="556" y="467" width="36" height="35" style="fill: rgb(32,32,32); stroke-width: 6px; stroke: rgb(55,55,55);"></rect><rect x="213" y="412" width="42" height="157" style="fill: rgb(77, 132, 47); stroke-width: 6px; stroke: rgb(42, 42, 42);"></rect><rect x="745" y="412" width="42" height="157" style="fill: rgb(77, 132, 47); stroke-width: 6px; stroke: rgb(42, 42, 42);"></rect><rect x="337" y="621" width="286" height="75" style="fill: rgb(161, 81, 52); stroke-width: 6px; stroke: rgb(55, 55, 55);"></rect><rect x="475" y="480" width="50" height="20" style="fill: rgb(245,245,245);"></rect><rect x="339" y="369" width="136" height="161" style="fill: rgb(22,122,255); stroke-width: 16px; stroke: rgb(245,245,245);"></rect><rect x="525" y="369" width="136" height="161" style="fill: rgb(255,22,22); stroke-width: 16px; stroke: rgb(245,245,245);"></rect><rect x="210" y="397" width="136" height="20" style="fill: rgb(245,245,245);"></rect><rect x="654" y="397" width="136" height="20" style="fill: rgb(245,245,245);"></rect><rect x="255" y="179" width="490" height="46" style="fill: rgb(78, 61, 233); stroke-width: 0px; stroke: rgb(0, 0, 0);"></rect><rect x="377" y="133" width="245" height="92" style="fill: rgb(78, 61, 233); stroke-width: 0px; stroke: rgb(0, 0, 0);"></rect><rect x="703" y="223" width="42" height="363" style="fill: rgb(78, 61, 233); stroke-width: 0px; stroke: rgb(0, 0, 0);"></rect><rect x="340" y="950" width="320" height="62" style="fill: rgb(0, 80, 225); stroke-width: 6px; stroke: rgb(32, 32, 32);"></rect></svg>